<svg xmlns="http://www.w3.org/2000/svg" viewBox="0 0 80 49.999">
  <defs>
    <style>
      .cls-1 {
        fill: #0191cb;
      }
    </style>
  </defs>
  <g id="compromisso" transform="translate(0 -96.004)">
    <g id="Group_5" data-name="Group 5" transform="translate(11.663 99.543)">
      <g id="Group_4" data-name="Group 4" transform="translate(0 0)">
        <path id="Path_6" data-name="Path 6" class="cls-1" d="M126.146,149.4c-1.57-3.273-7.187-7.817-12.613-12.207-3.027-2.447-5.887-4.76-7.71-6.583a1.666,1.666,0,0,0-1.743-.39c-1.123.407-1.817.72-2.363.963a5.512,5.512,0,0,1-2.237.613,1.666,1.666,0,0,0-1.22.73c-2.357,3.523-4.8,3.223-6.427,2.677-.52-.173-.613-.4-.663-.61-.35-1.463,1.407-4.87,3.683-7.147,5.417-5.42,8.21-6.777,14.11-4.14,6.693,2.993,13.4,5.337,13.467,5.36a1.668,1.668,0,1,0,1.1-3.15c-.067-.023-6.64-2.32-13.2-5.257-7.643-3.417-11.837-1.167-17.827,4.827-2.28,2.28-5.377,6.893-4.577,10.277a4.123,4.123,0,0,0,2.863,3c3.777,1.247,7.223.053,9.79-3.353a8.414,8.414,0,0,0,2.5-.793c.313-.14.68-.3,1.167-.5,1.907,1.79,4.48,3.873,7.19,6.063,4.9,3.963,10.457,8.457,11.707,11.057a1.953,1.953,0,0,1-.5,2.5,1.837,1.837,0,0,1-2.053.4,1.666,1.666,0,0,0-2.6,1.55,2.014,2.014,0,0,1-1.277,1.877,2.558,2.558,0,0,1-2.6.06,1.666,1.666,0,0,0-2.8,1.063,3.167,3.167,0,0,1-1.967,2.553,1.757,1.757,0,0,1-1.913-.3,1.686,1.686,0,0,0-1.523-.387,1.664,1.664,0,0,0-1.17,1.05c-.063.167-.207.567-1.767.567a9.6,9.6,0,0,1-4.083-1.4c-1.17-.77-8.507-6.243-14.843-11.55-.89-.75-2.43-2.357-3.79-3.777-1.207-1.26-2.31-2.4-2.877-2.883a1.668,1.668,0,0,0-2.153,2.547c.517.437,1.517,1.493,2.62,2.643,1.487,1.553,3.023,3.16,4.057,4.027,6.207,5.2,13.667,10.807,15.153,11.783a12.787,12.787,0,0,0,5.917,1.94A5.736,5.736,0,0,0,106.763,164a5.188,5.188,0,0,0,3.79-.04,6.565,6.565,0,0,0,3.47-3.2,6.445,6.445,0,0,0,4.183-.6,5.655,5.655,0,0,0,2.783-2.907,5.451,5.451,0,0,0,3.823-1.37A5.3,5.3,0,0,0,126.146,149.4Z" transform="translate(-74.642 -118.658)"/>
      </g>
    </g>
    <g id="Group_7" data-name="Group 7" transform="translate(16.667 102.669)">
      <g id="Group_6" data-name="Group 6" transform="translate(0 0)">
        <path id="Path_7" data-name="Path 7" class="cls-1" d="M123.333,138.663h-15a1.667,1.667,0,1,0,0,3.333h15a1.667,1.667,0,1,0,0-3.333Z" transform="translate(-106.666 -138.663)"/>
      </g>
    </g>
    <g id="Group_9" data-name="Group 9" transform="translate(60.127 125.999)">
      <g id="Group_8" data-name="Group 8">
        <path id="Path_8" data-name="Path 8" class="cls-1" d="M392.734,288.717a1.662,1.662,0,0,0-2.313-.453l-4.873,3.273a1.667,1.667,0,0,0,1.86,2.767l4.873-3.273A1.668,1.668,0,0,0,392.734,288.717Z" transform="translate(-384.811 -287.977)"/>
      </g>
    </g>
    <g id="Group_11" data-name="Group 11" transform="translate(45.002 124.334)">
      <g id="Group_10" data-name="Group 10">
        <path id="Path_9" data-name="Path 9" class="cls-1" d="M300.716,287.676c-1.193-.94-6.53-6.4-9.83-9.843a1.667,1.667,0,0,0-2.407,2.307c.857.893,8.413,8.77,10.17,10.157a1.66,1.66,0,0,0,1.03.357,1.684,1.684,0,0,0,1.313-.637A1.665,1.665,0,0,0,300.716,287.676Z" transform="translate(-288.016 -277.317)"/>
      </g>
    </g>
    <g id="Group_13" data-name="Group 13" transform="translate(40.001 129.337)">
      <g id="Group_12" data-name="Group 12">
        <path id="Path_10" data-name="Path 10" class="cls-1" d="M267.048,318.036c-2-1.6-7.013-6.927-8.147-8.16a1.668,1.668,0,1,0-2.457,2.257c.06.063,6.047,6.527,8.52,8.507a1.667,1.667,0,0,0,2.083-2.6Z" transform="translate(-256.005 -309.337)"/>
      </g>
    </g>
    <g id="Group_15" data-name="Group 15" transform="translate(33.335 132.666)">
      <g id="Group_14" data-name="Group 14" transform="translate(0 0)">
        <path id="Path_11" data-name="Path 11" class="cls-1" d="M224.418,339.37c-2.377-2-7.24-7.18-8.19-8.2a1.667,1.667,0,0,0-2.437,2.277c1.367,1.463,6.02,6.4,8.477,8.47a1.668,1.668,0,0,0,2.15-2.55Z" transform="translate(-213.343 -330.644)"/>
      </g>
    </g>
    <g id="Group_17" data-name="Group 17" transform="translate(0 96.003)">
      <g id="Group_16" data-name="Group 16" transform="translate(0 0)">
        <path id="Path_12" data-name="Path 12" class="cls-1" d="M19.48,99.792C16.623,97.086,5.2,96.209,1.767,96.006A1.665,1.665,0,0,0,0,97.669v30a1.667,1.667,0,0,0,1.667,1.667h10a1.665,1.665,0,0,0,1.583-1.15c.243-.747,5.987-18.373,6.743-27.04A1.658,1.658,0,0,0,19.48,99.792ZM10.45,126H3.333V99.456c5.357.423,11.137,1.343,13.237,2.363C15.687,109.119,11.69,122.089,10.45,126Z" transform="translate(0 -96.003)"/>
      </g>
    </g>
    <g id="Group_19" data-name="Group 19" transform="translate(56.726 99.336)">
      <g id="Group_18" data-name="Group 18" transform="translate(0 0)">
        <path id="Path_13" data-name="Path 13" class="cls-1" d="M384.654,117.33c-13.087,0-20.347,3.35-20.65,3.49a1.658,1.658,0,0,0-.89,1.037,1.681,1.681,0,0,0,.183,1.353c2.06,3.317,8.51,21.737,9.75,26.23a1.666,1.666,0,0,0,1.607,1.223h10A1.667,1.667,0,0,0,386.32,149V119A1.665,1.665,0,0,0,384.654,117.33Zm-1.667,30H375.9c-1.58-5.147-6.247-18.567-8.85-24.113a54.284,54.284,0,0,1,15.937-2.533Z" transform="translate(-363.046 -117.33)"/>
      </g>
    </g>
  </g>
</svg>
