<svg xmlns="http://www.w3.org/2000/svg" viewBox="0 0 45 81.988">
  <defs>
    <style>
      .cls-1 {
        fill: #0191cb;
      }
    </style>
  </defs>
  <g id="custo" transform="translate(0)">
    <path id="Path_14" data-name="Path 14" class="cls-1" d="M152.211,29.328,135.733,14.9a4.784,4.784,0,0,0-6.282,0l-5.845,5.123a14.971,14.971,0,0,1-.521-3.914,13.716,13.716,0,0,1,2.923-8.684,8.542,8.542,0,0,1,6.585-3.393c5.241,0,9.507,5.409,9.507,12.077a2.022,2.022,0,0,0,2.016,2.016h0a2.022,2.022,0,0,0,2.016-2.016C146.13,7.223,140.05,0,132.592,0a12.487,12.487,0,0,0-9.709,4.871,17.73,17.73,0,0,0-3.83,11.237,18.749,18.749,0,0,0,1.26,6.8l-7.324,6.417a8.492,8.492,0,0,0-2.889,6.366V71.876a10.122,10.122,0,0,0,10.112,10.112h24.776A10.122,10.122,0,0,0,155.1,71.876V35.694A8.492,8.492,0,0,0,152.211,29.328Zm-1.142,42.548a6.079,6.079,0,0,1-6.081,6.081H120.2a6.079,6.079,0,0,1-6.081-6.081V35.694a4.46,4.46,0,0,1,1.512-3.343l6.635-5.812.6.806a12.487,12.487,0,0,0,9.709,4.871h0a2.016,2.016,0,0,0,0-4.031,8.517,8.517,0,0,1-6.585-3.393c-.235-.3-.47-.6-.689-.924l6.786-5.946a.735.735,0,0,1,.974,0L149.54,32.352a4.46,4.46,0,0,1,1.512,3.343V71.876Z" transform="translate(-110.1)"/>
    <path id="Path_15" data-name="Path 15" class="cls-1" d="M201.2,232.445H196.77a2.839,2.839,0,0,1,0-5.677h7.811a2.016,2.016,0,1,0,0-4.031H201v-2.62a2.016,2.016,0,1,0-4.031,0v2.62h-.2a6.87,6.87,0,0,0,0,13.74H201.2a2.839,2.839,0,1,1,0,5.677h-7.962a2.016,2.016,0,1,0,0,4.031h3.729v2.671a2.016,2.016,0,1,0,4.031,0v-2.671h.286a6.87,6.87,0,0,0-.084-13.74Z" transform="translate(-176.496 -181.465)"/>
  </g>
</svg>
