<svg xmlns="http://www.w3.org/2000/svg" viewBox="0 0 80 86.352">
  <defs>
    <style>
      .cls-1 {
        fill: #0191cb;
      }
    </style>
  </defs>
  <g id="inovacao" transform="translate(-15.88)">
    <g id="Group_38" data-name="Group 38" transform="translate(33.304 17.024)">
      <g id="Group_37" data-name="Group 37">
        <path id="Path_24" data-name="Path 24" class="cls-1" d="M125.576,85.12A22.592,22.592,0,0,0,103,107.7a25.7,25.7,0,0,0,10.672,20.5v16.3a1.6,1.6,0,0,0,.112.544v.128a1.605,1.605,0,0,0,.1.192l5.632,8.384a1.6,1.6,0,0,0,1.328.7h9.312a1.6,1.6,0,0,0,1.328-.7l5.632-8.384a1.607,1.607,0,0,0,.1-.192v-.128a1.6,1.6,0,0,0,.112-.544v-16.3a25.7,25.7,0,0,0,10.672-20.5A22.592,22.592,0,0,0,125.576,85.12Zm3.808,66.176h-7.616l-3.488-5.184h14.576Zm-12.5-8.384v-4.24h17.376l.016,4.24ZM135,126v.048a1.6,1.6,0,0,0-.72,1.344v8.128H116.888V127.3a1.6,1.6,0,0,0-.72-1.344,22.4,22.4,0,0,1-9.952-18.3,19.376,19.376,0,0,1,38.736,0A22.4,22.4,0,0,1,135,126Z" transform="translate(-103 -85.12)"/>
      </g>
    </g>
    <g id="Group_40" data-name="Group 40" transform="translate(54.92 24.272)">
      <g id="Group_39" data-name="Group 39">
        <path id="Path_25" data-name="Path 25" class="cls-1" d="M212.68,121.36a1.6,1.6,0,0,0,0,3.2,12.064,12.064,0,0,1,12.048,12.048,1.6,1.6,0,0,0,3.2,0A15.264,15.264,0,0,0,212.68,121.36Z" transform="translate(-211.08 -121.36)"/>
      </g>
    </g>
    <g id="Group_42" data-name="Group 42" transform="translate(15.88 37.92)">
      <g id="Group_41" data-name="Group 41">
        <path id="Path_26" data-name="Path 26" class="cls-1" d="M29,189.6H17.48a1.6,1.6,0,0,0,0,3.2H29a1.6,1.6,0,0,0,1.6-1.6h0A1.6,1.6,0,0,0,29,189.6Z" transform="translate(-15.88 -189.6)"/>
      </g>
    </g>
    <g id="Group_44" data-name="Group 44" transform="translate(81.16 37.92)">
      <g id="Group_43" data-name="Group 43">
        <path id="Path_27" data-name="Path 27" class="cls-1" d="M355.4,189.6H343.88a1.6,1.6,0,0,0,0,3.2H355.4a1.6,1.6,0,0,0,0-3.2Z" transform="translate(-342.28 -189.6)"/>
      </g>
    </g>
    <g id="Group_46" data-name="Group 46" transform="translate(27.001 56.865)">
      <g id="Group_45" data-name="Group 45">
        <path id="Path_28" data-name="Path 28" class="cls-1" d="M82.649,284.883a1.6,1.6,0,0,0-2.431,0v-.032l-8.176,8.208a1.6,1.6,0,1,0,2.256,2.256l8.176-8.176A1.6,1.6,0,0,0,82.649,284.883Z" transform="translate(-71.483 -284.323)"/>
      </g>
    </g>
    <g id="Group_48" data-name="Group 48" transform="translate(73.295 10.815)">
      <g id="Group_47" data-name="Group 47">
        <path id="Path_29" data-name="Path 29" class="cls-1" d="M313.684,54.461a1.6,1.6,0,0,0-2.081,0l-8.176,8.176a1.6,1.6,0,0,0,1.136,2.736l-.016-.016a1.6,1.6,0,0,0,1.136-.464l8.176-8.176A1.6,1.6,0,0,0,313.684,54.461Z" transform="translate(-302.953 -54.076)"/>
      </g>
    </g>
    <g id="Group_50" data-name="Group 50" transform="translate(73.209 56.833)">
      <g id="Group_49" data-name="Group 49" transform="translate(0)">
        <path id="Path_30" data-name="Path 30" class="cls-1" d="M313.832,293.252a1.592,1.592,0,0,0-.317-.322l-8.176-8.208a1.6,1.6,0,1,0-2.256,2.256l8.176,8.176a1.6,1.6,0,1,0,2.573-1.9Z" transform="translate(-302.523 -284.163)"/>
      </g>
    </g>
    <g id="Group_52" data-name="Group 52" transform="translate(27.175 10.815)">
      <g id="Group_51" data-name="Group 51" transform="translate(0)">
        <path id="Path_31" data-name="Path 31" class="cls-1" d="M83.173,62.637,75,54.461a1.6,1.6,0,0,0-2.256,2.256l8.176,8.176a1.6,1.6,0,0,0,2.256-2.256Z" transform="translate(-72.356 -54.076)"/>
      </g>
    </g>
    <g id="Group_54" data-name="Group 54" transform="translate(54.279)">
      <g id="Group_53" data-name="Group 53">
        <path id="Path_32" data-name="Path 32" class="cls-1" d="M209.477,0a1.6,1.6,0,0,0-1.6,1.6V13.168a1.6,1.6,0,0,0,1.551,1.647h.049a1.6,1.6,0,0,0,1.6-1.6V1.6A1.6,1.6,0,0,0,209.477,0Z" transform="translate(-207.876)"/>
      </g>
    </g>
  </g>
</svg>
