<svg xmlns="http://www.w3.org/2000/svg" viewBox="0 0 70 77.587">
  <defs>
    <style>
      .cls-1 {
        fill: #0191cb;
      }
    </style>
  </defs>
  <g id="KnowHow" transform="translate(0 0)">
    <g id="Group_2" data-name="Group 2" transform="translate(0 0)">
      <path id="Path_1" data-name="Path 1" class="cls-1" d="M93.671,19.85A21.435,21.435,0,0,0,85.941,8.732C78.645,3.009,71.825.637,63.847,1.045A86.66,86.66,0,0,0,51.339,2.832C45.5,4.006,41.268,6.057,38.384,9.1A24.522,24.522,0,0,0,33.2,17.557a34.1,34.1,0,0,0-1.169,4.21l-.109.468a16.368,16.368,0,0,1-1.1,2.918c-.269.6-.537,1.2-.766,1.811a4.407,4.407,0,0,0-.349,2.176,4.934,4.934,0,0,0,1.887,2.881c.634.581,1.051.989,1.054,1.36a2.216,2.216,0,0,1-.226.552,50.038,50.038,0,0,1-5.66,9.207c-.928,1.133-1.9,2.455-1.7,3.8a4.006,4.006,0,0,0,1.874,2.411,9.534,9.534,0,0,0,1.349.782c.558.284,1.493.761,1.557,1.1a2.2,2.2,0,0,1-.142,1.3c-.192.4-.391.754-.563,1.058-.475.84-1.27,2.245-.071,3.251.279.247.756.622,1.193.956a3.261,3.261,0,0,0-.417,1.873,1.855,1.855,0,0,0,.761,1.257c.289.205.6.384.905.559.76.433,1.057.635,1.159,1.039a3.647,3.647,0,0,1-.14,1.568c-.075.339-.148.678-.193,1.016a7.549,7.549,0,0,0,.433,3.475A4.789,4.789,0,0,0,38.4,72a105.57,105.57,0,0,0,10.909-3.262c2.907,1.717,4.743,6.913,5.222,8.861a1.3,1.3,0,0,0,1.257.985H88.478a1.293,1.293,0,0,0,1.236-1.671A8.947,8.947,0,0,0,88.259,74.4a10,10,0,0,1-.932-1.423,25.5,25.5,0,0,1-1.461-3.7,42.868,42.868,0,0,1-1.524-7.647,21.864,21.864,0,0,1,1.691-11.351,29.04,29.04,0,0,1,3.511-5.541c.782-1.051,1.589-2.138,2.316-3.285A19.885,19.885,0,0,0,95.023,30.83,38.687,38.687,0,0,0,93.671,19.85ZM92.438,30.794a17.348,17.348,0,0,1-2.764,9.281C89,41.139,88.22,42.187,87.467,43.2a31.529,31.529,0,0,0-3.8,6.047,24.446,24.446,0,0,0-1.888,12.7,45.365,45.365,0,0,0,1.62,8.1A28.168,28.168,0,0,0,85,74.108a12.1,12.1,0,0,0,1.173,1.822c.018.023.035.047.052.071H56.764a20.64,20.64,0,0,0-4.559-8.262l.957-.335c.968-.339,1.7-.6,2.066-.711,5.544-1.74,8.317-4.259,8.241-7.488a1.293,1.293,0,1,0-2.586.061c.032,1.332-1.058,3.274-6.431,4.961-.381.121-1.14.385-2.144.738-.927.325-2.068.724-3.317,1.151l-.008,0a107.5,107.5,0,0,1-11.109,3.354,2.289,2.289,0,0,1-2.667-1.734,5.008,5.008,0,0,1-.312-2.283c.035-.268.1-.535.155-.8a5.722,5.722,0,0,0,.12-2.762,4.268,4.268,0,0,0-2.383-2.647c-.092-.052-.186-.105-.277-.159a4.74,4.74,0,0,1,.5-.8,1.292,1.292,0,0,0-.249-1.837c-.311-.229-1.049-.783-1.581-1.207.066-.121.14-.253.208-.372.2-.351.426-.756.647-1.22a4.781,4.781,0,0,0,.347-2.892c-.3-1.585-1.817-2.358-2.923-2.922a7.5,7.5,0,0,1-1.075-.623,6.626,6.626,0,0,1-.761-.617c0-.194.206-.667,1.2-1.882A52.151,52.151,0,0,0,34.729,35.1a3.734,3.734,0,0,0,.506-1.753,4.509,4.509,0,0,0-1.894-3.236c-.523-.479-1.016-.931-1.072-1.327a2.253,2.253,0,0,1,.207-.909c.212-.564.461-1.116.707-1.668a18.522,18.522,0,0,0,1.254-3.388l.11-.472a31.561,31.561,0,0,1,1.076-3.9,21.971,21.971,0,0,1,4.638-7.573c2.505-2.644,6.3-4.448,11.589-5.513a84.411,84.411,0,0,1,12.13-1.74c7.319-.368,13.6,1.829,20.368,7.14a18.664,18.664,0,0,1,6.837,9.789A36.13,36.13,0,0,1,92.438,30.794Z" transform="translate(-25.032 -1)"/>
      <path id="Path_2" data-name="Path 2" class="cls-1" d="M232.2,58.129h-2.681a14.793,14.793,0,0,0-1.208-2.914l1.9-1.9a1.293,1.293,0,0,0,.147-1.654,18.411,18.411,0,0,0-4.576-4.576,1.291,1.291,0,0,0-1.654.146l-1.9,1.9a14.787,14.787,0,0,0-2.916-1.208V45.24a1.294,1.294,0,0,0-1.066-1.273,18.635,18.635,0,0,0-6.473,0,1.294,1.294,0,0,0-1.066,1.273v2.682a14.788,14.788,0,0,0-2.916,1.208l-1.9-1.9a1.291,1.291,0,0,0-1.654-.146,18.408,18.408,0,0,0-4.576,4.576,1.293,1.293,0,0,0,.147,1.654l1.9,1.9A14.8,14.8,0,0,0,200.5,58.13h-2.681a1.293,1.293,0,0,0-1.273,1.066,18.5,18.5,0,0,0,0,6.474,1.293,1.293,0,0,0,1.273,1.066H200.5a14.794,14.794,0,0,0,1.208,2.914l-1.9,1.9a1.293,1.293,0,0,0-.147,1.654,18.408,18.408,0,0,0,4.576,4.576,1.3,1.3,0,0,0,1.654-.146l1.9-1.9a14.787,14.787,0,0,0,2.916,1.208v2.682a1.294,1.294,0,0,0,1.066,1.273,18.532,18.532,0,0,0,6.473,0,1.294,1.294,0,0,0,1.066-1.273V76.943a14.787,14.787,0,0,0,2.916-1.208l1.9,1.9a1.294,1.294,0,0,0,1.654.146,18.408,18.408,0,0,0,4.576-4.576,1.293,1.293,0,0,0-.147-1.654l-1.9-1.9a14.8,14.8,0,0,0,1.208-2.914H232.2a1.293,1.293,0,0,0,1.273-1.066,18.5,18.5,0,0,0,0-6.474A1.293,1.293,0,0,0,232.2,58.129Zm-1.12,6.02h-2.564a1.292,1.292,0,0,0-1.263,1.015,12.222,12.222,0,0,1-1.654,3.991,1.291,1.291,0,0,0,.173,1.613l1.815,1.815a15.864,15.864,0,0,1-2.427,2.427L223.348,73.2a1.293,1.293,0,0,0-1.613-.174,12.21,12.21,0,0,1-3.993,1.656,1.293,1.293,0,0,0-1.015,1.263V78.5a16.08,16.08,0,0,1-3.432,0V75.941a1.293,1.293,0,0,0-1.015-1.263,12.211,12.211,0,0,1-3.993-1.656,1.29,1.29,0,0,0-1.613.174l-1.815,1.814a15.864,15.864,0,0,1-2.427-2.427l1.815-1.815a1.291,1.291,0,0,0,.173-1.613,12.222,12.222,0,0,1-1.654-3.991,1.293,1.293,0,0,0-1.263-1.015h-2.563a16.03,16.03,0,0,1,0-3.433H201.5a1.292,1.292,0,0,0,1.263-1.015,12.222,12.222,0,0,1,1.654-3.991,1.291,1.291,0,0,0-.173-1.613l-1.815-1.815a15.865,15.865,0,0,1,2.427-2.427l1.815,1.814a1.29,1.29,0,0,0,1.613.174,12.211,12.211,0,0,1,3.993-1.656,1.293,1.293,0,0,0,1.015-1.263V46.361a16.081,16.081,0,0,1,3.432,0v2.564a1.293,1.293,0,0,0,1.015,1.263,12.211,12.211,0,0,1,3.993,1.656,1.293,1.293,0,0,0,1.613-.174l1.815-1.814a15.864,15.864,0,0,1,2.427,2.427L225.775,54.1a1.291,1.291,0,0,0-.173,1.613,12.222,12.222,0,0,1,1.654,3.991,1.293,1.293,0,0,0,1.263,1.015h2.564A16.034,16.034,0,0,1,231.082,64.149Z" transform="translate(-170.314 -37.216)"/>
      <path id="Path_3" data-name="Path 3" class="cls-1" d="M125.152,212.273h-1.477a5.105,5.105,0,0,0-.549-1.318l1.046-1.046a1.293,1.293,0,1,0-1.829-1.829l-1.046,1.047a5.12,5.12,0,0,0-1.318-.549V207.1a1.293,1.293,0,0,0-2.586,0v1.477a5.115,5.115,0,0,0-1.318.549l-1.046-1.047a1.293,1.293,0,0,0-1.829,1.829l1.046,1.046a5.1,5.1,0,0,0-.549,1.318h-1.477a1.293,1.293,0,1,0,0,2.586H113.7a5.1,5.1,0,0,0,.549,1.318l-1.046,1.047a1.293,1.293,0,0,0,1.829,1.829l1.046-1.046a5.12,5.12,0,0,0,1.318.549v1.477a1.293,1.293,0,1,0,2.586,0v-1.477a5.116,5.116,0,0,0,1.318-.549l1.046,1.046a1.293,1.293,0,1,0,1.829-1.829l-1.046-1.047a5.1,5.1,0,0,0,.549-1.318h1.477a1.293,1.293,0,0,0,0-2.586Zm-6.466,3.879a2.586,2.586,0,1,1,2.586-2.586A2.586,2.586,0,0,1,118.686,216.152Z" transform="translate(-97.912 -174.772)"/>
      <path id="Path_4" data-name="Path 4" class="cls-1" d="M104.676,119.7a4.31,4.31,0,0,0,.311.751l-.7.7a1.293,1.293,0,0,0,1.829,1.829l.7-.7a4.352,4.352,0,0,0,.748.31v.992a1.293,1.293,0,0,0,2.586,0v-.992a4.33,4.33,0,0,0,.748-.31l.7.7a1.293,1.293,0,0,0,1.829-1.829l-.7-.7a4.3,4.3,0,0,0,.311-.751h.99a1.293,1.293,0,0,0,0-2.586h-.99a4.3,4.3,0,0,0-.311-.751l.7-.7a1.293,1.293,0,0,0-1.829-1.829l-.7.7a4.34,4.34,0,0,0-.748-.31v-.992a1.293,1.293,0,1,0-2.586,0v.993a4.342,4.342,0,0,0-.748.31l-.7-.7a1.293,1.293,0,0,0-1.829,1.829l.7.7a4.3,4.3,0,0,0-.311.751h-.99a1.293,1.293,0,0,0,0,2.586h.99Zm3.714-3.043a1.811,1.811,0,1,1-1.342,1.75A1.811,1.811,0,0,1,108.39,116.658Z" transform="translate(-90.67 -95.131)"/>
      <path id="Path_5" data-name="Path 5" class="cls-1" d="M272.932,111.941a8.405,8.405,0,1,0,8.405,8.405A8.405,8.405,0,0,0,272.932,111.941Zm0,14.224a5.819,5.819,0,1,1,5.819-5.819A5.819,5.819,0,0,1,272.932,126.165Z" transform="translate(-228.235 -95.13)"/>
    </g>
  </g>
</svg>
