<svg xmlns="http://www.w3.org/2000/svg" viewBox="0 0 80 64.861">
  <defs>
    <style>
      .cls-1 {
        fill: #0191cb;
      }
    </style>
  </defs>
  <g id="qualidade" transform="translate(0 -48.445)">
    <g id="Group_22" data-name="Group 22" transform="translate(16.05 62.304)">
      <g id="Group_21" data-name="Group 21" transform="translate(0 0)">
        <path id="Path_16" data-name="Path 16" class="cls-1" d="M149.445,137.141H103.89a1.173,1.173,0,0,0,0,2.346h45.555a1.173,1.173,0,1,0,0-2.346Z" transform="translate(-102.717 -137.141)"/>
      </g>
    </g>
    <g id="Group_24" data-name="Group 24" transform="translate(16.05 75.074)">
      <g id="Group_23" data-name="Group 23" transform="translate(0 0)">
        <path id="Path_17" data-name="Path 17" class="cls-1" d="M149.445,218.869H103.89a1.173,1.173,0,0,0,0,2.346h45.555a1.173,1.173,0,1,0,0-2.346Z" transform="translate(-102.717 -218.869)"/>
      </g>
    </g>
    <g id="Group_26" data-name="Group 26" transform="translate(30.985 83.361)">
      <g id="Group_25" data-name="Group 25" transform="translate(0 0)">
        <path id="Path_18" data-name="Path 18" class="cls-1" d="M215.159,271.909H199.474a1.173,1.173,0,0,0,0,2.346h15.685a1.173,1.173,0,0,0,0-2.346Z" transform="translate(-198.301 -271.909)"/>
      </g>
    </g>
    <g id="Group_28" data-name="Group 28" transform="translate(27.625 68.663)">
      <g id="Group_27" data-name="Group 27">
        <path id="Path_19" data-name="Path 19" class="cls-1" d="M211.95,177.838H177.97a1.173,1.173,0,1,0,0,2.346h33.98a1.173,1.173,0,0,0,0-2.346Z" transform="translate(-176.797 -177.838)"/>
      </g>
    </g>
    <g id="Group_30" data-name="Group 30" transform="translate(16.05 68.662)">
      <g id="Group_29" data-name="Group 29">
        <path id="Path_20" data-name="Path 20" class="cls-1" d="M110.008,177.837H103.89a1.173,1.173,0,1,0,0,2.346h6.118a1.173,1.173,0,1,0,0-2.346Z" transform="translate(-102.717 -177.837)"/>
      </g>
    </g>
    <g id="Group_32" data-name="Group 32" transform="translate(5.623 54.299)">
      <g id="Group_31" data-name="Group 31" transform="translate(0 0)">
        <path id="Path_21" data-name="Path 21" class="cls-1" d="M104.308,91.935a1.444,1.444,0,0,0-1.019-.415h0a4.425,4.425,0,0,1-4.43-4.231,1.441,1.441,0,0,0-1.443-1.376H43.031a1.441,1.441,0,0,0-1.444,1.377,4.461,4.461,0,0,1-4.226,4.226,1.441,1.441,0,0,0-1.376,1.444v30.316a1.441,1.441,0,0,0,1.376,1.443,4.462,4.462,0,0,1,4.226,4.226,1.441,1.441,0,0,0,1.444,1.376H77.652a1.173,1.173,0,1,0,0-2.346H43.837a6.73,6.73,0,0,0-5.507-5.507v-28.7a6.73,6.73,0,0,0,5.507-5.507H96.609a6.765,6.765,0,0,0,5.785,5.548v19.917a1.173,1.173,0,0,0,2.346,0V92.965A1.434,1.434,0,0,0,104.308,91.935Z" transform="translate(-35.985 -85.913)"/>
      </g>
    </g>
    <g id="Group_34" data-name="Group 34" transform="translate(0 48.445)">
      <g id="Group_33" data-name="Group 33" transform="translate(0 0)">
        <path id="Path_22" data-name="Path 22" class="cls-1" d="M76.745,48.445H3.255A3.259,3.259,0,0,0,0,51.7v49.6a3.259,3.259,0,0,0,3.255,3.255H52.482l-1.743,3.652a1.393,1.393,0,0,0,1.478,1.975l3.245-.522,1.81,2.971a1.391,1.391,0,0,0,1.189.668l.071,0a1.392,1.392,0,0,0,1.187-.791l3.145-6.59,3.144,6.589a1.392,1.392,0,0,0,1.186.792l.072,0a1.391,1.391,0,0,0,1.189-.668l1.81-2.971,3.245.522a1.393,1.393,0,0,0,1.478-1.975l-1.743-3.652h3.5A3.259,3.259,0,0,0,80,101.306V51.7A3.259,3.259,0,0,0,76.745,48.445ZM58.36,109.915,57.132,107.9a1.388,1.388,0,0,0-1.411-.65l-2.083.335,2.195-4.6a4.18,4.18,0,0,0,3.377,1.239,1.831,1.831,0,0,1,1.234.33,4.157,4.157,0,0,0,.365.229Zm4.783-6.954h-.011a1.842,1.842,0,0,1-.536,0l-.013,0a1.828,1.828,0,0,1-.78-.317,4.178,4.178,0,0,0-2.42-.773q-.2,0-.393.019a1.832,1.832,0,0,1-1.838-1.061,4.176,4.176,0,0,0-.541-.871c-.009-.013-.02-.026-.03-.039l-.035-.043c-.014-.016-.028-.031-.042-.046a4.174,4.174,0,0,0-1.413-1.06,1.833,1.833,0,0,1-1.061-1.838,4.179,4.179,0,0,0-.754-2.814,1.833,1.833,0,0,1,0-2.123,4.178,4.178,0,0,0,.754-2.814,1.833,1.833,0,0,1,1.061-1.838,4.178,4.178,0,0,0,2.06-2.06,1.834,1.834,0,0,1,1.838-1.061,4.179,4.179,0,0,0,2.814-.754,1.833,1.833,0,0,1,2.123,0,4.183,4.183,0,0,0,2.814.754,1.832,1.832,0,0,1,1.838,1.061,4.177,4.177,0,0,0,2.06,2.06A1.833,1.833,0,0,1,71.7,89.179a4.178,4.178,0,0,0,.754,2.814,1.833,1.833,0,0,1,0,2.123A4.179,4.179,0,0,0,71.7,96.93a1.833,1.833,0,0,1-1.062,1.838,4.175,4.175,0,0,0-1.41,1.058c-.016.017-.032.033-.046.051l-.03.037c-.012.015-.024.03-.035.045a4.171,4.171,0,0,0-.539.87,1.833,1.833,0,0,1-1.838,1.061,4.184,4.184,0,0,0-2.814.754A1.828,1.828,0,0,1,63.143,102.96Zm6.862,4.289a1.388,1.388,0,0,0-1.411.651l-1.227,2.015-2.449-5.131a4.182,4.182,0,0,0,.365-.229,1.829,1.829,0,0,1,1.234-.331,4.179,4.179,0,0,0,3.377-1.239l2.195,4.6Zm7.649-5.944a.911.911,0,0,1-.91.91H72.125l-.6-1.267c.03-.016.061-.033.092-.047a4.181,4.181,0,0,0,2.42-4.192,1.833,1.833,0,0,1,.331-1.234,4.181,4.181,0,0,0,0-4.841,1.832,1.832,0,0,1-.33-1.234,4.181,4.181,0,0,0-2.42-4.192,1.833,1.833,0,0,1-.9-.9,4.181,4.181,0,0,0-4.192-2.42,1.83,1.83,0,0,1-1.234-.331,4.181,4.181,0,0,0-4.841,0,1.831,1.831,0,0,1-1.234.33,4.18,4.18,0,0,0-4.192,2.42,1.833,1.833,0,0,1-.9.9,4.181,4.181,0,0,0-2.42,4.192,1.832,1.832,0,0,1-.331,1.234,4.181,4.181,0,0,0,0,4.84,1.832,1.832,0,0,1,.331,1.234,4.181,4.181,0,0,0,2.42,4.192c.032.014.062.031.092.047l-.6,1.267H3.255a.911.911,0,0,1-.91-.91V51.7a.911.911,0,0,1,.91-.91H76.745a.911.911,0,0,1,.91.91v49.6Z" transform="translate(0 -48.445)"/>
      </g>
    </g>
    <g id="Group_36" data-name="Group 36" transform="translate(55.491 85.768)">
      <g id="Group_35" data-name="Group 35">
        <path id="Path_23" data-name="Path 23" class="cls-1" d="M362.43,287.312a7.286,7.286,0,1,0,7.286,7.286A7.295,7.295,0,0,0,362.43,287.312Zm0,12.227a4.941,4.941,0,1,1,4.941-4.941A4.947,4.947,0,0,1,362.43,299.539Z" transform="translate(-355.143 -287.312)"/>
      </g>
    </g>
  </g>
</svg>
